<svg xmlns="http://www.w3.org/2000/svg" viewBox="0 0 435.1 435.1"><g transform="translate(61.08 0)"><path fill="#010101" d="M159.76,126.25c31.06,1.99,60.49,8.68,87.07,24.85,31.86,19.38,54.36,46.35,62.72,83.25,9.39,41.43-.96,78.78-28.07,110.79-33.42,39.45-74.76,68.7-122.12,89.39-1.45.63-3.62.79-5.01.18-47.14-20.87-88.97-49.26-122.72-88.57C11.25,322.39.37,294.46,0,263.1c-.41-35.76,13.43-65.94,38.64-90.97,23.65-23.48,52.5-36.75,85.07-42.46.79-.14,1.57-.38,2.02-.49-11.74-12.49-23.49-24.98-35.49-37.74,3.83-3.47,8.12-7.36,12.64-11.45,11.88,11.13,23.48,22.01,35.6,33.36,1.3-8.14,1.97-15.42,3.66-22.46,8.14-33.97,28.61-58.34,59.46-73.98,12.2-6.19,25.04-11.12,38.22-16.91-1.51,58.82-28.5,100.2-80.06,126.25ZM20.41,253.72c-.38,31.59,9.58,59.11,24.31,76.61,2.88,3.42,4.77,3.24,7.9.13,55.19-55.06,110.49-110.02,165.78-164.99,4.92-4.89,4.95-5.31-1.41-7.77-43.72-16.89-87.37-16.35-129.5,4-41.51,20.05-64.98,53.51-67.07,92.02ZM250.38,349.3c-1.58-1.73-2.53-2.86-3.56-3.89-28.87-28.87-57.81-57.68-86.54-86.68-3.33-3.36-5.05-3.14-8.28.09-28.52,28.5-57.23,56.82-85.89,85.18-4.54,4.49-4.58,4.46.06,8.83,25.15,23.69,53.84,42.16,84.52,57.79,4.55,2.32,8.19,2.12,12.56-.1,22.92-11.62,44.46-25.36,64.43-41.52,7.71-6.24,15.01-12.99,22.71-19.7ZM292.44,261.21c-.31-3.69-.4-8.37-1.13-12.96-4.94-30.9-20.64-55.19-45.33-74.1-3.74-2.86-5.77-2.28-8.74.66-20.97,20.69-42.01,41.31-63.15,61.83-2.87,2.79-2.71,4.48.07,7.24,28.69,28.51,57.25,57.16,85.85,85.76,4.28,4.28,4.88,4.35,8.75-.65,15.2-19.66,23.18-41.92,23.66-67.78Z"/><path fill="#f0cfbe" d="M20.41,253.72c2.09-38.51,25.56-71.97,67.07-92.02,42.13-20.35,85.78-20.89,129.5-4,6.36,2.46,6.33,2.88,1.41,7.77-55.28,54.97-110.58,109.93-165.78,164.99-3.12,3.12-5.02,3.3-7.9-.13-14.73-17.5-24.69-45.02-24.31-76.61Z"/><path fill="#e3aa95" d="M250.38,349.3c-7.7,6.71-15,13.46-22.71,19.7-19.97,16.16-41.51,29.9-64.43,41.52-4.37,2.22-8.01,2.42-12.56.1-30.68-15.63-59.37-34.1-84.52-57.79-4.64-4.37-4.6-4.34-.06-8.83,28.67-28.36,57.37-56.68,85.89-85.18,3.23-3.23,4.95-3.45,8.28-.09,28.74,29,57.68,57.8,86.54,86.68,1.03,1.03,1.98,2.16,3.56,3.89Z"/><path fill="#fef0e5" d="M292.44,261.21c-.48,25.86-8.46,48.12-23.66,67.78-3.87,5-4.47,4.93-8.75.65-28.6-28.6-57.16-57.25-85.85-85.76-2.78-2.76-2.95-4.45-.07-7.24,21.14-20.52,42.18-41.13,63.15-61.83,2.97-2.93,5-3.52,8.74-.66,24.69,18.91,40.39,43.2,45.33,74.1.73,4.58.82,9.27,1.13,12.96Z"/></g></svg>
