<?xml version="1.0" encoding="UTF-8"?>
<svg id="personal_brand_guidelines_peachless" xmlns="http://www.w3.org/2000/svg" viewBox="0 0 1920 1080">
  <defs>
    <style>
      .cls-1 {
        fill: #fff;
        opacity: .58;
      }

      .cls-2 {
        letter-spacing: -.02em;
      }

      .cls-3 {
        letter-spacing: 0em;
      }

      .cls-4 {
        font-size: 95.68px;
      }

      .cls-4, .cls-5, .cls-6 {
        font-family: NeueHaasGroteskTextPro-Thin, 'Neue Haas Grotesk Text Pro';
        font-variation-settings: 'wght' 100;
        font-weight: 200;
      }

      .cls-7 {
        letter-spacing: 0em;
      }

      .cls-5 {
        font-size: 43px;
      }

      .cls-8 {
        letter-spacing: -.02em;
      }

      .cls-9 {
        letter-spacing: 0em;
      }

      .cls-10 {
        fill: #eee7e1;
      }

      .cls-11 {
        letter-spacing: -.03em;
      }

      .cls-12 {
        fill: #030303;
      }

      .cls-13 {
        fill: #d29983;
      }

      .cls-14 {
        fill: #e2c0af;
      }

      .cls-15 {
        letter-spacing: -.03em;
      }

      .cls-16 {
        letter-spacing: 0em;
      }

      .cls-17 {
        letter-spacing: 0em;
      }

      .cls-6 {
        font-size: 32px;
      }

      .cls-18 {
        letter-spacing: -.02em;
      }

      .cls-19 {
        letter-spacing: -.01em;
      }

      .cls-20 {
        fill: #efe1d5;
      }

      .cls-21 {
        letter-spacing: -.01em;
      }
    </style>
  </defs>
  <rect id="background_2" class="cls-10" y="-1" width="1920" height="1080"/>
  <g id="index">
    <path id="form" class="cls-1" d="M989.33,1080.39c-52.85-71.56-84.09-160.06-84.09-255.85,0-238.11,193.02-431.13,431.13-431.13s431.13,193.02,431.13,431.13c0,96.9-31.97,186.34-85.93,258.33"/>
    <g id="symbol_logo">
      <path id="color_3" class="cls-14" d="M1275.1,449.6c.93-17.23,11.44-32.21,30.01-41.18,18.85-9.11,38.39-9.35,57.95-1.79,2.85,1.1,2.83,1.29.63,3.48-24.74,24.6-49.48,49.19-74.18,73.83-1.4,1.39-2.24,1.48-3.53-.06-6.59-7.83-11.05-20.15-10.88-34.28Z"/>
      <path id="color_2" class="cls-13" d="M1378.02,492.37c-3.45,3-6.71,6.02-10.16,8.81-8.93,7.23-18.58,13.38-28.83,18.58-1.96.99-3.59,1.08-5.62.05-13.73-7-26.57-15.26-37.82-25.86-2.08-1.96-2.06-1.94-.03-3.95,12.83-12.69,25.67-25.36,38.44-38.12,1.44-1.44,2.21-1.54,3.71-.04,12.86,12.98,25.81,25.87,38.73,38.79.46.46.89.97,1.59,1.74Z"/>
      <path id="color_1" class="cls-20" d="M1396.84,452.95c-.22,11.57-3.79,21.53-10.59,30.33-1.73,2.24-2,2.21-3.92.29-12.8-12.8-25.58-25.62-38.42-38.38-1.24-1.24-1.32-1.99-.03-3.24,9.46-9.18,18.88-18.41,28.26-27.67,1.33-1.31,2.24-1.57,3.91-.29,11.05,8.46,18.07,19.33,20.28,33.16.33,2.05.37,4.15.51,5.8Z"/>
      <path id="outline" class="cls-12" d="M1337.47,392.56c13.9.89,27.07,3.88,38.96,11.12,14.26,8.67,24.32,20.74,28.07,37.25,4.2,18.54-.43,35.25-12.56,49.58-14.95,17.65-33.45,30.74-54.65,40-.65.28-1.62.36-2.24.08-21.09-9.34-39.81-22.04-54.91-39.64-9.12-10.63-13.99-23.12-14.15-37.15-.18-16,6.01-29.51,17.29-40.71,10.58-10.51,23.49-16.44,38.07-19,.36-.06.7-.17.9-.22-5.26-5.59-10.51-11.18-15.88-16.89,1.72-1.55,3.63-3.29,5.66-5.12,5.32,4.98,10.51,9.85,15.93,14.93.58-3.64.88-6.9,1.64-10.05,3.64-15.2,12.8-26.1,26.61-33.11,5.46-2.77,11.2-4.98,17.1-7.57-.68,26.32-12.75,44.84-35.82,56.5ZM1275.1,449.6c-.17,14.13,4.29,26.45,10.88,34.28,1.29,1.53,2.14,1.45,3.53.06,24.7-24.64,49.44-49.23,74.18-73.83,2.2-2.19,2.21-2.38-.63-3.48-19.56-7.56-39.1-7.31-57.95,1.79-18.57,8.97-29.08,23.95-30.01,41.18ZM1378.02,492.37c-.71-.78-1.13-1.28-1.59-1.74-12.92-12.92-25.87-25.81-38.73-38.79-1.49-1.5-2.26-1.41-3.71.04-12.76,12.75-25.61,25.43-38.44,38.12-2.03,2.01-2.05,1.99.03,3.95,11.25,10.6,24.09,18.87,37.82,25.86,2.03,1.04,3.66.95,5.62-.05,10.26-5.2,19.9-11.35,28.83-18.58,3.45-2.79,6.72-5.81,10.16-8.81ZM1396.84,452.95c-.14-1.65-.18-3.75-.51-5.8-2.21-13.83-9.23-24.69-20.28-33.16-1.67-1.28-2.58-1.02-3.91.29-9.38,9.26-18.8,18.49-28.26,27.67-1.28,1.25-1.21,2,.03,3.24,12.84,12.76,25.62,25.58,38.42,38.38,1.92,1.92,2.19,1.95,3.92-.29,6.8-8.8,10.37-18.76,10.59-30.33Z"/>
    </g>
    <g id="text">
      <text class="cls-5" transform="translate(1791.11 1031.27)"><tspan x="0" y="0">2</tspan></text>
      <text class="cls-4" transform="translate(73.16 271.05)"><tspan x="0" y="0">Ind</tspan><tspan class="cls-11" x="128.56" y="0">e</tspan><tspan x="179.72" y="0">x</tspan></text>
    </g>
  </g>
  <text class="cls-6" transform="translate(1151.65 579.64)"><tspan x="0" y="0">ind</tspan><tspan class="cls-15" x="42.28" y="0">e</tspan><tspan x="59.39" y="0">x ...................................................... 2</tspan><tspan x="0" y="38.4">about us ............................................. 3</tspan><tspan x="0" y="76.8">i</tspan><tspan class="cls-16" x="5.98" y="76.8">n</tspan><tspan class="cls-18" x="23.36" y="76.8">f</tspan><tspan x="32.39" y="76.8">o logo .............................................. 4</tspan><tspan x="0" y="115.2">full log</tspan><tspan class="cls-21" x="88.62" y="115.2">o</tspan><tspan x="106.73" y="115.2">type .................................... 5</tspan><tspan x="0" y="153.6">con</tspan><tspan class="cls-21" x="53.7" y="153.6">s</tspan><tspan x="69.25" y="153.6">truction .................................. 6</tspan><tspan x="0" y="192">clear s</tspan><tspan class="cls-17" x="92.45" y="192">p</tspan><tspan class="cls-3" x="111.11" y="192">a</tspan><tspan x="128.25" y="192">ce ..................................... 7</tspan><tspan x="0" y="230.4">possible </tspan><tspan class="cls-18" x="124.22" y="230.4">v</tspan><tspan x="138.22" y="230.4">ari</tspan><tspan class="cls-2" x="172.88" y="230.4">a</tspan><tspan x="189.67" y="230.4">tions .................. 7</tspan><tspan x="0" y="268.8">do n</tspan><tspan class="cls-21" x="61.05" y="268.8">o</tspan><tspan x="79.16" y="268.8">t .................................................... 7</tspan><tspan x="0" y="307.2">typog</tspan><tspan class="cls-8" x="81.02" y="307.2">r</tspan><tspan x="91.58" y="307.2">ap</tspan><tspan class="cls-7" x="127.69" y="307.2">h</tspan><tspan x="144.91" y="307.2">y ...................................... 8</tspan><tspan x="0" y="345.6">color </tspan><tspan class="cls-19" x="78.31" y="345.6">s</tspan><tspan class="cls-9" x="93.92" y="345.6">y</tspan><tspan class="cls-21" x="108.83" y="345.6">s</tspan><tspan class="cls-19" x="124.38" y="345.6">t</tspan><tspan x="133.86" y="345.6">em .................................. 9</tspan><tspan x="0" y="384">thank </tspan><tspan class="cls-21" x="84.7" y="384">y</tspan><tspan x="99.42" y="384">ou ......................................... 10</tspan></text>
</svg>