<?xml version="1.0" encoding="UTF-8"?>
<svg id="personal_brand_guidelines_peachless" xmlns="http://www.w3.org/2000/svg" viewBox="0 0 1920 1080">
  <defs>
    <style>
      .cls-1 {
        font-family: MinionConceptRoman-Semibold, 'Minion Variable Concept';
        font-size: 62.87px;
        font-variation-settings: 'wght' 600, 'opsz' 11;
        font-weight: 600;
      }

      .cls-2 {
        fill: #fff;
        opacity: .58;
      }

      .cls-3 {
        letter-spacing: 0em;
      }

      .cls-4 {
        letter-spacing: 0em;
      }

      .cls-5 {
        font-size: 95.68px;
      }

      .cls-5, .cls-6 {
        font-family: NeueHaasGroteskTextPro-Thin, 'Neue Haas Grotesk Text Pro';
        font-variation-settings: 'wght' 100;
        font-weight: 200;
      }

      .cls-6 {
        font-size: 43px;
      }

      .cls-7 {
        letter-spacing: 0em;
      }

      .cls-8 {
        opacity: .8;
      }

      .cls-9 {
        fill: #eee7e1;
      }

      .cls-10 {
        letter-spacing: 0em;
      }

      .cls-11 {
        fill: #030303;
      }

      .cls-12 {
        fill: #e2c0af;
      }

      .cls-13 {
        letter-spacing: 0em;
      }

      .cls-14 {
        letter-spacing: 0em;
      }

      .cls-15 {
        fill: none;
        stroke: #030303;
        stroke-miterlimit: 10;
        stroke-width: 12px;
      }

      .cls-16 {
        letter-spacing: -.01em;
      }
    </style>
  </defs>
  <g id="info_logo">
    <polygon id="background_6" class="cls-9" points="1920 1084 0 1084 0 4 1919 4 1920 1084"/>
    <g id="construction">
      <text class="cls-6" transform="translate(1845.01 1031.14)"><tspan x="0" y="0">6</tspan></text>
      <text id="peachless._logo" class="cls-1" transform="translate(125.06 306.64)"><tspan class="cls-4" x="0" y="0">p</tspan><tspan class="cls-13" x="34.58" y="0">e</tspan><tspan class="cls-10" x="62.61" y="0">a</tspan><tspan x="91.78" y="0">ch</tspan><tspan class="cls-3" x="153.58" y="0">l</tspan><tspan class="cls-7" x="171.12" y="0">e</tspan><tspan x="199.28" y="0">s</tspan><tspan class="cls-14" x="223.55" y="0">s</tspan><tspan x="248.25" y="0">.</tspan></text>
      <text class="cls-5" transform="translate(120.14 246.5)"><tspan x="0" y="0">Con</tspan><tspan class="cls-16" x="178.88" y="0">s</tspan><tspan x="225.36" y="0">truction</tspan></text>
    </g>
  </g>
  <ellipse id="elipse" class="cls-2" cx="286.65" cy="496.5" rx="114.65" ry="109.5"/>
  <ellipse id="elipse-2" data-name="elipse" class="cls-2" cx="533.65" cy="488.5" rx="114.65" ry="109.5"/>
  <ellipse id="elipse-3" data-name="elipse" class="cls-2" cx="797.65" cy="494.5" rx="114.65" ry="109.5"/>
  <ellipse id="elipse-4" data-name="elipse" class="cls-2" cx="1042.65" cy="494.5" rx="114.65" ry="109.5"/>
  <ellipse id="elipse-5" data-name="elipse" class="cls-2" cx="1298.65" cy="494.5" rx="114.65" ry="109.5"/>
  <ellipse id="elipse-6" data-name="elipse" class="cls-2" cx="636.65" cy="741.5" rx="114.65" ry="109.5"/>
  <ellipse id="elipse-7" data-name="elipse" class="cls-2" cx="894.65" cy="743.5" rx="114.65" ry="109.5"/>
  <ellipse id="elipse-8" data-name="elipse" class="cls-2" cx="1151.65" cy="743.5" rx="114.65" ry="109.5"/>
  <ellipse id="elipse-9" data-name="elipse" class="cls-2" cx="1409.65" cy="737.5" rx="114.65" ry="109.5"/>
  <ellipse id="elipse-10" data-name="elipse" class="cls-2" cx="1676.65" cy="736.5" rx="114.65" ry="109.5"/>
  <g id="outlines" class="cls-8">
    <path id="outline" class="cls-12" d="M280.24,445.69c14.44.92,28.12,4.03,40.47,11.55,14.81,9.01,25.27,21.54,29.15,38.7,4.37,19.26-.45,36.62-13.05,51.5-15.53,18.34-34.75,31.93-56.77,41.55-.67.29-1.68.37-2.33.08-21.91-9.7-41.36-22.9-57.04-41.17-9.48-11.04-14.53-24.02-14.7-38.6-.19-16.62,6.24-30.65,17.96-42.29,10.99-10.92,24.41-17.08,39.55-19.74.37-.06.73-.17.94-.23-5.46-5.8-10.92-11.61-16.5-17.54,1.78-1.61,3.78-3.42,5.88-5.32,5.52,5.17,10.92,10.23,16.55,15.51.6-3.78.92-7.17,1.7-10.44,3.79-15.79,13.3-27.12,27.64-34.39,5.67-2.88,11.64-5.17,17.77-7.86-.7,27.34-13.25,46.58-37.21,58.69ZM215.46,504.95c-.18,14.68,4.45,27.48,11.3,35.61,1.34,1.59,2.22,1.51,3.67.06,25.66-25.6,51.36-51.14,77.06-76.69,2.29-2.27,2.3-2.47-.65-3.61-20.32-7.85-40.61-7.6-60.2,1.86-19.29,9.32-30.21,24.87-31.18,42.77ZM322.36,549.38c-.73-.81-1.17-1.33-1.66-1.81-13.42-13.42-26.87-26.81-40.23-40.29-1.55-1.56-2.35-1.46-3.85.04-13.26,13.25-26.6,26.41-39.93,39.6-2.11,2.09-2.13,2.07.03,4.1,11.69,11.01,25.03,19.6,39.29,26.87,2.11,1.08,3.81.98,5.84-.05,10.65-5.4,20.67-11.79,29.95-19.3,3.58-2.9,6.98-6.04,10.56-9.16ZM341.91,508.43c-.14-1.71-.19-3.89-.53-6.02-2.29-14.36-9.59-25.65-21.07-34.44-1.74-1.33-2.68-1.06-4.06.3-9.75,9.62-19.53,19.2-29.35,28.74-1.33,1.3-1.26,2.08.03,3.37,13.34,13.25,26.61,26.57,39.91,39.87,1.99,1.99,2.27,2.02,4.07-.3,7.07-9.14,10.77-19.49,11-31.51Z"/>
    <path id="outline-2" data-name="outline" class="cls-12" d="M1036.95,444.16c14.44.92,28.12,4.03,40.47,11.55,14.81,9.01,25.27,21.54,29.15,38.7,4.37,19.26-.45,36.62-13.05,51.5-15.53,18.34-34.75,31.93-56.77,41.55-.67.29-1.68.37-2.33.08-21.91-9.7-41.36-22.9-57.04-41.17-9.48-11.04-14.53-24.02-14.7-38.6-.19-16.62,6.24-30.65,17.96-42.29,10.99-10.92,24.41-17.08,39.55-19.74.37-.06.73-.17.94-.23-5.46-5.8-10.92-11.61-16.5-17.54,1.78-1.61,3.78-3.42,5.88-5.32,5.52,5.17,10.92,10.23,16.55,15.51.6-3.78.92-7.17,1.7-10.44,3.79-15.79,13.3-27.12,27.64-34.39,5.67-2.88,11.64-5.17,17.77-7.86-.7,27.34-13.25,46.58-37.21,58.69ZM972.17,503.41c-.18,14.68,4.45,27.48,11.3,35.61,1.34,1.59,2.22,1.51,3.67.06,25.66-25.6,51.36-51.14,77.06-76.69,2.29-2.27,2.3-2.47-.65-3.61-20.32-7.85-40.61-7.6-60.2,1.86-19.29,9.32-30.21,24.87-31.18,42.77ZM1079.07,547.84c-.73-.81-1.17-1.33-1.66-1.81-13.42-13.42-26.87-26.81-40.23-40.29-1.55-1.56-2.35-1.46-3.85.04-13.26,13.25-26.6,26.41-39.93,39.6-2.11,2.09-2.13,2.07.03,4.1,11.69,11.01,25.03,19.6,39.29,26.87,2.11,1.08,3.81.98,5.84-.05,10.65-5.4,20.67-11.79,29.95-19.3,3.58-2.9,6.98-6.04,10.56-9.16ZM1098.63,506.89c-.14-1.71-.19-3.89-.53-6.02-2.29-14.36-9.59-25.65-21.07-34.44-1.74-1.33-2.68-1.06-4.06.3-9.75,9.62-19.53,19.2-29.35,28.74-1.33,1.3-1.26,2.08.03,3.37,13.34,13.25,26.61,26.57,39.91,39.87,1.99,1.99,2.27,2.02,4.07-.3,7.07-9.14,10.77-19.49,11-31.51Z"/>
    <path id="outline-3" data-name="outline" class="cls-12" d="M1409.95,694.16c14.44.92,28.12,4.03,40.47,11.55,14.81,9.01,25.27,21.54,29.15,38.7,4.37,19.26-.45,36.62-13.05,51.5-15.53,18.34-34.75,31.93-56.77,41.55-.67.29-1.68.37-2.33.08-21.91-9.7-41.36-22.9-57.04-41.17-9.48-11.04-14.53-24.02-14.7-38.6-.19-16.62,6.24-30.65,17.96-42.29,10.99-10.92,24.41-17.08,39.55-19.74.37-.06.73-.17.94-.23-5.46-5.8-10.92-11.61-16.5-17.54,1.78-1.61,3.78-3.42,5.88-5.32,5.52,5.17,10.92,10.23,16.55,15.51.6-3.78.92-7.17,1.7-10.44,3.79-15.79,13.3-27.12,27.64-34.39,5.67-2.88,11.64-5.17,17.77-7.86-.7,27.34-13.25,46.58-37.21,58.69ZM1345.17,753.41c-.18,14.68,4.45,27.48,11.3,35.61,1.34,1.59,2.22,1.51,3.67.06,25.66-25.6,51.36-51.14,77.06-76.69,2.29-2.27,2.3-2.47-.65-3.61-20.32-7.85-40.61-7.6-60.2,1.86-19.29,9.32-30.21,24.87-31.18,42.77ZM1452.07,797.84c-.73-.81-1.17-1.33-1.66-1.81-13.42-13.42-26.87-26.81-40.23-40.29-1.55-1.56-2.35-1.46-3.85.04-13.26,13.25-26.6,26.41-39.93,39.6-2.11,2.09-2.13,2.07.03,4.1,11.69,11.01,25.03,19.6,39.29,26.87,2.11,1.08,3.81.98,5.84-.05,10.65-5.4,20.67-11.79,29.95-19.3,3.58-2.9,6.98-6.04,10.56-9.16ZM1471.63,756.89c-.14-1.71-.19-3.89-.53-6.02-2.29-14.36-9.59-25.65-21.07-34.44-1.74-1.33-2.68-1.06-4.06.3-9.75,9.62-19.53,19.2-29.35,28.74-1.33,1.3-1.26,2.08.03,3.37,13.34,13.25,26.61,26.57,39.91,39.87,1.99,1.99,2.27,2.02,4.07-.3,7.07-9.14,10.77-19.49,11-31.51Z"/>
    <path id="outline-4" data-name="outline" class="cls-12" d="M1292.95,444.16c14.44.92,28.12,4.03,40.47,11.55,14.81,9.01,25.27,21.54,29.15,38.7,4.37,19.26-.45,36.62-13.05,51.5-15.53,18.34-34.75,31.93-56.77,41.55-.67.29-1.68.37-2.33.08-21.91-9.7-41.36-22.9-57.04-41.17-9.48-11.04-14.53-24.02-14.7-38.6-.19-16.62,6.24-30.65,17.96-42.29,10.99-10.92,24.41-17.08,39.55-19.74.37-.06.73-.17.94-.23-5.46-5.8-10.92-11.61-16.5-17.54,1.78-1.61,3.78-3.42,5.88-5.32,5.52,5.17,10.92,10.23,16.55,15.51.6-3.78.92-7.17,1.7-10.44,3.79-15.79,13.3-27.12,27.64-34.39,5.67-2.88,11.64-5.17,17.77-7.86-.7,27.34-13.25,46.58-37.21,58.69ZM1228.17,503.41c-.18,14.68,4.45,27.48,11.3,35.61,1.34,1.59,2.22,1.51,3.67.06,25.66-25.6,51.36-51.14,77.06-76.69,2.29-2.27,2.3-2.47-.65-3.61-20.32-7.85-40.61-7.6-60.2,1.86-19.29,9.32-30.21,24.87-31.18,42.77ZM1335.07,547.84c-.73-.81-1.17-1.33-1.66-1.81-13.42-13.42-26.87-26.81-40.23-40.29-1.55-1.56-2.35-1.46-3.85.04-13.26,13.25-26.6,26.41-39.93,39.6-2.11,2.09-2.13,2.07.03,4.1,11.69,11.01,25.03,19.6,39.29,26.87,2.11,1.08,3.81.98,5.84-.05,10.65-5.4,20.67-11.79,29.95-19.3,3.58-2.9,6.98-6.04,10.56-9.16ZM1354.63,506.89c-.14-1.71-.19-3.89-.53-6.02-2.29-14.36-9.59-25.65-21.07-34.44-1.74-1.33-2.68-1.06-4.06.3-9.75,9.62-19.53,19.2-29.35,28.74-1.33,1.3-1.26,2.08.03,3.37,13.34,13.25,26.61,26.57,39.91,39.87,1.99,1.99,2.27,2.02,4.07-.3,7.07-9.14,10.77-19.49,11-31.51Z"/>
    <path id="outline-5" data-name="outline" class="cls-12" d="M791.95,446.16c14.44.92,28.12,4.03,40.47,11.55,14.81,9.01,25.27,21.54,29.15,38.7,4.37,19.26-.45,36.62-13.05,51.5-15.53,18.34-34.75,31.93-56.77,41.55-.67.29-1.68.37-2.33.08-21.91-9.7-41.36-22.9-57.04-41.17-9.48-11.04-14.53-24.02-14.7-38.6-.19-16.62,6.24-30.65,17.96-42.29,10.99-10.92,24.41-17.08,39.55-19.74.37-.06.73-.17.94-.23-5.46-5.8-10.92-11.61-16.5-17.54,1.78-1.61,3.78-3.42,5.88-5.32,5.52,5.17,10.92,10.23,16.55,15.51.6-3.78.92-7.17,1.7-10.44,3.79-15.79,13.3-27.12,27.64-34.39,5.67-2.88,11.64-5.17,17.77-7.86-.7,27.34-13.25,46.58-37.21,58.69ZM727.17,505.41c-.18,14.68,4.45,27.48,11.3,35.61,1.34,1.59,2.22,1.51,3.67.06,25.66-25.6,51.36-51.14,77.06-76.69,2.29-2.27,2.3-2.47-.65-3.61-20.32-7.85-40.61-7.6-60.2,1.86-19.29,9.32-30.21,24.87-31.18,42.77ZM834.07,549.84c-.73-.81-1.17-1.33-1.66-1.81-13.42-13.42-26.87-26.81-40.23-40.29-1.55-1.56-2.35-1.46-3.85.04-13.26,13.25-26.6,26.41-39.93,39.6-2.11,2.09-2.13,2.07.03,4.1,11.69,11.01,25.03,19.6,39.29,26.87,2.11,1.08,3.81.98,5.84-.05,10.65-5.4,20.67-11.79,29.95-19.3,3.58-2.9,6.98-6.04,10.56-9.16ZM853.63,508.89c-.14-1.71-.19-3.89-.53-6.02-2.29-14.36-9.59-25.65-21.07-34.44-1.74-1.33-2.68-1.06-4.06.3-9.75,9.62-19.53,19.2-29.35,28.74-1.33,1.3-1.26,2.08.03,3.37,13.34,13.25,26.61,26.57,39.91,39.87,1.99,1.99,2.27,2.02,4.07-.3,7.07-9.14,10.77-19.49,11-31.51Z"/>
    <path id="outline-6" data-name="outline" class="cls-12" d="M534.95,442.16c14.44.92,28.12,4.03,40.47,11.55,14.81,9.01,25.27,21.54,29.15,38.7,4.37,19.26-.45,36.62-13.05,51.5-15.53,18.34-34.75,31.93-56.77,41.55-.67.29-1.68.37-2.33.08-21.91-9.7-41.36-22.9-57.04-41.17-9.48-11.04-14.53-24.02-14.7-38.6-.19-16.62,6.24-30.65,17.96-42.29,10.99-10.92,24.41-17.08,39.55-19.74.37-.06.73-.17.94-.23-5.46-5.8-10.92-11.61-16.5-17.54,1.78-1.61,3.78-3.42,5.88-5.32,5.52,5.17,10.92,10.23,16.55,15.51.6-3.78.92-7.17,1.7-10.44,3.79-15.79,13.3-27.12,27.64-34.39,5.67-2.88,11.64-5.17,17.77-7.86-.7,27.34-13.25,46.58-37.21,58.69ZM470.17,501.41c-.18,14.68,4.45,27.48,11.3,35.61,1.34,1.59,2.22,1.51,3.67.06,25.66-25.6,51.36-51.14,77.06-76.69,2.29-2.27,2.3-2.47-.65-3.61-20.32-7.85-40.61-7.6-60.2,1.86-19.29,9.32-30.21,24.87-31.18,42.77ZM577.07,545.84c-.73-.81-1.17-1.33-1.66-1.81-13.42-13.42-26.87-26.81-40.23-40.29-1.55-1.56-2.35-1.46-3.85.04-13.26,13.25-26.6,26.41-39.93,39.6-2.11,2.09-2.13,2.07.03,4.1,11.69,11.01,25.03,19.6,39.29,26.87,2.11,1.08,3.81.98,5.84-.05,10.65-5.4,20.67-11.79,29.95-19.3,3.58-2.9,6.98-6.04,10.56-9.16ZM596.63,504.89c-.14-1.71-.19-3.89-.53-6.02-2.29-14.36-9.59-25.65-21.07-34.44-1.74-1.33-2.68-1.06-4.06.3-9.75,9.62-19.53,19.2-29.35,28.74-1.33,1.3-1.26,2.08.03,3.37,13.34,13.25,26.61,26.57,39.91,39.87,1.99,1.99,2.27,2.02,4.07-.3,7.07-9.14,10.77-19.49,11-31.51Z"/>
    <path id="outline-7" data-name="outline" class="cls-12" d="M886.38,693.84c14.44.92,28.12,4.03,40.47,11.55,14.81,9.01,25.27,21.54,29.15,38.7,4.37,19.26-.45,36.62-13.05,51.5-15.53,18.34-34.75,31.93-56.77,41.55-.67.29-1.68.37-2.33.08-21.91-9.7-41.36-22.9-57.04-41.17-9.48-11.04-14.53-24.02-14.7-38.6-.19-16.62,6.24-30.65,17.96-42.29,10.99-10.92,24.41-17.08,39.55-19.74.37-.06.73-.17.94-.23-5.46-5.8-10.92-11.61-16.5-17.54,1.78-1.61,3.78-3.42,5.88-5.32,5.52,5.17,10.92,10.23,16.55,15.51.6-3.78.92-7.17,1.7-10.44,3.79-15.79,13.3-27.12,27.64-34.39,5.67-2.88,11.64-5.17,17.77-7.86-.7,27.34-13.25,46.58-37.21,58.69ZM821.6,753.1c-.18,14.68,4.45,27.48,11.3,35.61,1.34,1.59,2.22,1.51,3.67.06,25.66-25.6,51.36-51.14,77.06-76.69,2.29-2.27,2.3-2.47-.65-3.61-20.32-7.85-40.61-7.6-60.2,1.86-19.29,9.32-30.21,24.87-31.18,42.77ZM928.5,797.53c-.73-.81-1.17-1.33-1.66-1.81-13.42-13.42-26.87-26.81-40.23-40.29-1.55-1.56-2.35-1.46-3.85.04-13.26,13.25-26.6,26.41-39.93,39.6-2.11,2.09-2.13,2.07.03,4.1,11.69,11.01,25.03,19.6,39.29,26.87,2.11,1.08,3.81.98,5.84-.05,10.65-5.4,20.67-11.79,29.95-19.3,3.58-2.9,6.98-6.04,10.56-9.16ZM948.06,756.58c-.14-1.71-.19-3.89-.53-6.02-2.29-14.36-9.59-25.65-21.07-34.44-1.74-1.33-2.68-1.06-4.06.3-9.75,9.62-19.53,19.2-29.35,28.74-1.33,1.3-1.26,2.08.03,3.37,13.34,13.25,26.61,26.57,39.91,39.87,1.99,1.99,2.27,2.02,4.07-.3,7.07-9.14,10.77-19.49,11-31.51Z"/>
    <path id="outline-8" data-name="outline" class="cls-12" d="M1149.93,694.6c14.44.92,28.12,4.03,40.47,11.55,14.81,9.01,25.27,21.54,29.15,38.7,4.37,19.26-.45,36.62-13.05,51.5-15.53,18.34-34.75,31.93-56.77,41.55-.67.29-1.68.37-2.33.08-21.91-9.7-41.36-22.9-57.04-41.17-9.48-11.04-14.53-24.02-14.7-38.6-.19-16.62,6.24-30.65,17.96-42.29,10.99-10.92,24.41-17.08,39.55-19.74.37-.06.73-.17.94-.23-5.46-5.8-10.92-11.61-16.5-17.54,1.78-1.61,3.78-3.42,5.88-5.32,5.52,5.17,10.92,10.23,16.55,15.51.6-3.78.92-7.17,1.7-10.44,3.79-15.79,13.3-27.12,27.64-34.39,5.67-2.88,11.64-5.17,17.77-7.86-.7,27.34-13.25,46.58-37.21,58.69ZM1085.15,753.85c-.18,14.68,4.45,27.48,11.3,35.61,1.34,1.59,2.22,1.51,3.67.06,25.66-25.6,51.36-51.14,77.06-76.69,2.29-2.27,2.3-2.47-.65-3.61-20.32-7.85-40.61-7.6-60.2,1.86-19.29,9.32-30.21,24.87-31.18,42.77ZM1192.05,798.28c-.73-.81-1.17-1.33-1.66-1.81-13.42-13.42-26.87-26.81-40.23-40.29-1.55-1.56-2.35-1.46-3.85.04-13.26,13.25-26.6,26.41-39.93,39.6-2.11,2.09-2.13,2.07.03,4.1,11.69,11.01,25.03,19.6,39.29,26.87,2.11,1.08,3.81.98,5.84-.05,10.65-5.4,20.67-11.79,29.95-19.3,3.58-2.9,6.98-6.04,10.56-9.16ZM1211.61,757.33c-.14-1.71-.19-3.89-.53-6.02-2.29-14.36-9.59-25.65-21.07-34.44-1.74-1.33-2.68-1.06-4.06.3-9.75,9.62-19.53,19.2-29.35,28.74-1.33,1.3-1.26,2.08.03,3.37,13.34,13.25,26.61,26.57,39.91,39.87,1.99,1.99,2.27,2.02,4.07-.3,7.07-9.14,10.77-19.49,11-31.51Z"/>
    <path id="outline-9" data-name="outline" class="cls-12" d="M629.95,694.16c14.44.92,28.12,4.03,40.47,11.55,14.81,9.01,25.27,21.54,29.15,38.7,4.37,19.26-.45,36.62-13.05,51.5-15.53,18.34-34.75,31.93-56.77,41.55-.67.29-1.68.37-2.33.08-21.91-9.7-41.36-22.9-57.04-41.17-9.48-11.04-14.53-24.02-14.7-38.6-.19-16.62,6.24-30.65,17.96-42.29,10.99-10.92,24.41-17.08,39.55-19.74.37-.06.73-.17.94-.23-5.46-5.8-10.92-11.61-16.5-17.54,1.78-1.61,3.78-3.42,5.88-5.32,5.52,5.17,10.92,10.23,16.55,15.51.6-3.78.92-7.17,1.7-10.44,3.79-15.79,13.3-27.12,27.64-34.39,5.67-2.88,11.64-5.17,17.77-7.86-.7,27.34-13.25,46.58-37.21,58.69ZM565.17,753.41c-.18,14.68,4.45,27.48,11.3,35.61,1.34,1.59,2.22,1.51,3.67.06,25.66-25.6,51.36-51.14,77.06-76.69,2.29-2.27,2.3-2.47-.65-3.61-20.32-7.85-40.61-7.6-60.2,1.86-19.29,9.32-30.21,24.87-31.18,42.77ZM672.07,797.84c-.73-.81-1.17-1.33-1.66-1.81-13.42-13.42-26.87-26.81-40.23-40.29-1.55-1.56-2.35-1.46-3.85.04-13.26,13.25-26.6,26.41-39.93,39.6-2.11,2.09-2.13,2.07.03,4.1,11.69,11.01,25.03,19.6,39.29,26.87,2.11,1.08,3.81.98,5.84-.05,10.65-5.4,20.67-11.79,29.95-19.3,3.58-2.9,6.98-6.04,10.56-9.16ZM691.63,756.89c-.14-1.71-.19-3.89-.53-6.02-2.29-14.36-9.59-25.65-21.07-34.44-1.74-1.33-2.68-1.06-4.06.3-9.75,9.62-19.53,19.2-29.35,28.74-1.33,1.3-1.26,2.08.03,3.37,13.34,13.25,26.61,26.57,39.91,39.87,1.99,1.99,2.27,2.02,4.07-.3,7.07-9.14,10.77-19.49,11-31.51Z"/>
  </g>
  <g id="letters">
    <path id="s" class="cls-15" d="M1417.51,699.71c-6.48-1.13-19.82-2.51-35,3-2.73.99-14.7,5.54-26,17-4.08,4.14-9.33,9.47-13,18-7.56,17.57-4.24,38.99,7,53,2.64,3.3,5.27,5.61,7,7l87-87c.4-.76,1.03-1.59,2-2,5.67-2.38,18.74,11.38,25,25,1.26,2.73,10.6,23.94,1,46-1.69,3.88-4.68,9.44-14,19-9.08,9.32-24.37,22.65-48,34"/>
    <path id="s-2" data-name="s" class="cls-15" d="M1157.5,699.69c-6.48-1.13-19.82-2.51-35,3-2.73.99-14.7,5.54-26,17-4.08,4.14-9.33,9.47-13,18-7.56,17.57-4.24,38.99,7,53,2.64,3.3,5.27,5.61,7,7l87-87c.4-.76,1.03-1.59,2-2,5.67-2.38,18.74,11.38,25,25,1.26,2.73,10.6,23.94,1,46-1.69,3.88-4.68,9.44-14,19-9.08,9.32-24.37,22.65-48,34"/>
    <path id="l" class="cls-15" d="M663.5,712.69l-81.23,81.23c-2.54,2.54-2.27,6.74.57,8.94,9.72,7.51,33.92,24.84,40.65,27.84"/>
    <g id="h">
      <polyline class="cls-15" points="1238.5 551.69 1291.42 498.32 1332.5 457.69"/>
      <line class="cls-15" x1="1341.5" y1="548.69" x2="1291.5" y2="496.69"/>
      <path class="cls-15" d="M1298.5,580.69l39.29-31.59c8.57-6.89,15.25-15.88,19.23-26.13,1.8-4.63,3.48-9.66,4.48-14.28"/>
    </g>
    <path id="c" class="cls-15" d="M982.5,546.69c-14.7-19.17-18.43-43.93-9-64,11.85-25.23,39.03-31.41,46-33,22.67-5.16,44.26,4.01,51,7"/>
    <g id="a">
      <path class="cls-15" d="M744.5,546.69l45.95-45.95,34.58-34.58c2.51-2.51,6.16-2.03,9.07,0,9.4,6.54,23.93,17.01,25.4,34.54,1.25,14.97,0,23-6.5,33.5-2.39,3.86-7.69,9.5-13.26,15.41-9.42,9.99-19.24,18.09-24.24,22.09-5.52,4.42-20,14-20,14"/>
      <line class="cls-15" x1="792.5" y1="502.69" x2="837.5" y2="547.69"/>
    </g>
    <g id="e">
      <path class="cls-15" d="M526.5,579.69s-33-20-39-29c-3.21-4.82,21.13-29.88,45-53,14.81-14.34,27.41-26.12,34.46-33.11,3.33-3.3,8.62-3.5,12.19-.47,10.03,8.5,23.35,25.52,23.35,35.58"/>
      <path class="cls-15" d="M837.53,801.43c-3.21-4.82,21.13-29.88,45-53,14.81-14.34,27.41-26.12,34.46-33.11,3.33-3.3,8.62-3.5,12.19-.47,10.03,8.5,23.35,25.52,23.35,35.58"/>
      <path class="cls-15" d="M876.53,830.43s-33-20-39-29"/>
      <line class="cls-15" x1="569" y1="531.19" x2="535" y2="499.19"/>
      <line class="cls-15" x1="919.03" y1="781.93" x2="885.03" y2="749.93"/>
    </g>
    <path id="p" class="cls-15" d="M226.5,554.69l54.24-54.67,36.76-36.33c3.43,1.88,21,10,27,31,6.82,23.88-4.27,41.33-6.5,44.5-2.85,4.05-5.79,7.01-8,9l-47-47"/>
  </g>
  <path id="outline-10" data-name="outline" class="cls-11" d="M1678.22,688.68c14.44.92,28.12,4.03,40.47,11.55,14.81,9.01,25.27,21.54,29.15,38.7,4.37,19.26-.45,36.62-13.05,51.5-15.53,18.34-34.75,31.93-56.77,41.55-.67.29-1.68.37-2.33.08-21.91-9.7-41.36-22.9-57.04-41.17-9.48-11.04-14.53-24.02-14.7-38.6-.19-16.62,6.24-30.65,17.96-42.29,10.99-10.92,24.41-17.08,39.55-19.74.37-.06.73-.17.94-.23-5.46-5.8-10.92-11.61-16.5-17.54,1.78-1.61,3.78-3.42,5.88-5.32,5.52,5.17,10.92,10.23,16.55,15.51.6-3.78.92-7.17,1.7-10.44,3.79-15.79,13.3-27.12,27.64-34.39,5.67-2.88,11.64-5.17,17.77-7.86-.7,27.34-13.25,46.58-37.21,58.69ZM1613.44,747.93c-.18,14.68,4.45,27.48,11.3,35.61,1.34,1.59,2.22,1.51,3.67.06,25.66-25.6,51.36-51.14,77.06-76.69,2.29-2.27,2.3-2.47-.65-3.61-20.32-7.85-40.61-7.6-60.2,1.86-19.29,9.32-30.21,24.87-31.18,42.77ZM1720.34,792.36c-.73-.81-1.17-1.33-1.66-1.81-13.42-13.42-26.87-26.81-40.23-40.29-1.55-1.56-2.35-1.46-3.85.04-13.26,13.25-26.6,26.41-39.93,39.6-2.11,2.09-2.13,2.07.03,4.1,11.69,11.01,25.03,19.6,39.29,26.87,2.11,1.08,3.81.98,5.84-.05,10.65-5.4,20.67-11.79,29.95-19.3,3.58-2.9,6.98-6.04,10.56-9.16ZM1739.89,751.41c-.14-1.71-.19-3.89-.53-6.02-2.29-14.36-9.59-25.65-21.07-34.44-1.74-1.33-2.68-1.06-4.06.3-9.75,9.62-19.53,19.2-29.35,28.74-1.33,1.3-1.26,2.08.03,3.37,13.34,13.25,26.61,26.57,39.91,39.87,1.99,1.99,2.27,2.02,4.07-.3,7.07-9.14,10.77-19.49,11-31.51Z"/>
</svg>