<?xml version="1.0" encoding="UTF-8"?>
<svg id="personal_brand_guidelines_peachless" xmlns="http://www.w3.org/2000/svg" viewBox="0 0 1920 1080">
  <defs>
    <style>
      .cls-1, .cls-2, .cls-3, .cls-4, .cls-5, .cls-6 {
        font-family: MinionConceptRoman-Semibold, 'Minion Variable Concept';
        font-variation-settings: 'wght' 600, 'opsz' 11;
        font-weight: 600;
      }

      .cls-1, .cls-7 {
        fill: #d29983;
      }

      .cls-1, .cls-5, .cls-6 {
        font-size: 37.13px;
      }

      .cls-8 {
        stroke-width: .12px;
      }

      .cls-8, .cls-9, .cls-3, .cls-10, .cls-11, .cls-12, .cls-13 {
        stroke: #000;
        stroke-miterlimit: 10;
      }

      .cls-8, .cls-9, .cls-10, .cls-11, .cls-12, .cls-13 {
        fill: none;
      }

      .cls-14 {
        letter-spacing: 0em;
      }

      .cls-15 {
        letter-spacing: -.02em;
      }

      .cls-16 {
        letter-spacing: 0em;
      }

      .cls-17 {
        letter-spacing: 0em;
      }

      .cls-2 {
        font-size: 26.03px;
      }

      .cls-18 {
        letter-spacing: 0em;
      }

      .cls-19 {
        letter-spacing: 0em;
      }

      .cls-20 {
        letter-spacing: 0em;
      }

      .cls-21 {
        letter-spacing: 0em;
      }

      .cls-22 {
        letter-spacing: -.02em;
      }

      .cls-23 {
        letter-spacing: 0em;
      }

      .cls-24 {
        fill: #070066;
        opacity: .69;
      }

      .cls-25 {
        fill: #442a0a;
      }

      .cls-9 {
        stroke-width: .25px;
      }

      .cls-26 {
        fill: #af1804;
        opacity: .76;
      }

      .cls-27 {
        letter-spacing: -.06em;
      }

      .cls-28 {
        letter-spacing: 0em;
      }

      .cls-29 {
        font-size: 95.68px;
      }

      .cls-29, .cls-30, .cls-31 {
        font-family: NeueHaasGroteskTextPro-Thin, 'Neue Haas Grotesk Text Pro';
        font-variation-settings: 'wght' 100;
        font-weight: 200;
      }

      .cls-32 {
        letter-spacing: 0em;
      }

      .cls-30 {
        font-size: 43px;
      }

      .cls-33 {
        letter-spacing: 0em;
      }

      .cls-34 {
        letter-spacing: -.02em;
      }

      .cls-35 {
        letter-spacing: 0em;
      }

      .cls-36 {
        letter-spacing: -.02em;
      }

      .cls-3, .cls-4 {
        font-size: 32.45px;
      }

      .cls-3, .cls-37 {
        fill: #006837;
      }

      .cls-10 {
        stroke-width: .19px;
      }

      .cls-38 {
        letter-spacing: 0em;
      }

      .cls-39 {
        letter-spacing: -.02em;
      }

      .cls-40 {
        fill: #eee7e1;
      }

      .cls-41 {
        letter-spacing: 0em;
      }

      .cls-42 {
        letter-spacing: 0em;
      }

      .cls-43 {
        letter-spacing: -.01em;
      }

      .cls-44 {
        letter-spacing: 0em;
      }

      .cls-45 {
        letter-spacing: -.04em;
      }

      .cls-11 {
        stroke-width: .15px;
      }

      .cls-46, .cls-6 {
        fill: #030303;
      }

      .cls-47 {
        letter-spacing: -.02em;
      }

      .cls-48 {
        letter-spacing: 0em;
      }

      .cls-49, .cls-5 {
        fill: #e2c0af;
      }

      .cls-12 {
        stroke-width: .13px;
      }

      .cls-50 {
        letter-spacing: 0em;
      }

      .cls-51 {
        letter-spacing: -.03em;
      }

      .cls-52 {
        letter-spacing: 0em;
      }

      .cls-31 {
        font-size: 32px;
      }

      .cls-53 {
        letter-spacing: 0em;
      }

      .cls-37 {
        opacity: .81;
      }

      .cls-54 {
        letter-spacing: -.01em;
      }

      .cls-55 {
        letter-spacing: -.01em;
      }

      .cls-56 {
        fill: #efe1d5;
      }

      .cls-57 {
        letter-spacing: 0em;
      }

      .cls-58 {
        letter-spacing: -.04em;
      }

      .cls-59 {
        letter-spacing: 0em;
      }

      .cls-60 {
        letter-spacing: 0em;
      }

      .cls-61 {
        letter-spacing: 0em;
      }

      .cls-62 {
        letter-spacing: 0em;
      }

      .cls-63 {
        letter-spacing: 0em;
      }

      .cls-64 {
        letter-spacing: 0em;
      }

      .cls-65 {
        letter-spacing: -.03em;
      }

      .cls-66 {
        letter-spacing: -.01em;
      }

      .cls-13 {
        stroke-width: .08px;
      }

      .cls-67 {
        letter-spacing: 0em;
      }
    </style>
  </defs>
  <g id="info_logo">
    <polygon id="background_7" class="cls-40" points="1921 1083 0 1083 0 3 1920 3 1921 1083"/>
    <g id="don_t_you_dare" data-name="don&amp;apos;t_you_dare">
      <g id="do_not_full_logo">
        <g>
          <path id="outline" class="cls-46" d="M1035.88,863.64c6.79-.16,13.16.87,18.89,4.27,6.75,4,11.49,9.96,13.32,18.51,2.03,9.48.06,18.44-5.3,26.63-6.63,10.14-14.98,18.25-24.73,24.68-.3.2-.76.31-1.05.22-10.22-3.17-19.61-8.39-27.54-16.67-4.89-5.1-7.71-11.62-8.18-19.39-.54-8.94,2.3-16.93,7.83-23.92,5.16-6.52,11.58-10.54,18.84-12.71.18-.05.35-.13.45-.17-2.74-2.9-5.5-5.82-8.34-8.84.84-.97,1.77-2.04,2.76-3.18,2.79,2.61,5.49,5.14,8.28,7.76.22-2.08.31-3.93.63-5.75,1.54-8.79,3.03-15.15,9.74-19.65,2.64-1.77,5.41-3.22,8.25-4.88.01,14.91-2.78,25.51-13.81,33.07ZM1005.85,898.96c.28,7.84,2.86,14.28,6.37,18.06.68.73,1.1.63,1.77-.23,11.71-15.07,23.33-29.97,34.84-44.74,1.02-1.31,1.02-1.41-.35-1.87-9.53-3.2-19.13-2.1-28.37,3.98-9.22,6.07-14.23,15.11-14.26,24.8ZM1056.46,914.97c-.33-.35-.53-.58-.75-.79-6.13-5.87-12.39-11.85-18.73-17.99-.74-.72-1.11-.62-1.79.25-5.97,7.71-12.01,15.42-18.07,23.18-.96,1.23-.97,1.22.1,2.12,5.76,4.8,12.14,8.18,18.81,10.76.98.38,1.75.21,2.66-.46,4.74-3.48,9.15-7.39,13.19-11.79,1.56-1.69,3.03-3.49,4.58-5.28ZM1064.7,893.19c-.08-.86-.11-1.96-.28-3.02-1.13-7.2-4.47-12.63-9.71-16.63-.8-.61-1.23-.42-1.84.36-4.32,5.52-8.68,11.05-13.07,16.57-.6.75-.55,1.16.07,1.75,6.3,6.06,12.45,12.04,18.49,17.89.89.87,1.02.86,1.79-.41,3.02-5.02,4.56-10.43,4.56-16.51Z"/>
          <path id="color_3" class="cls-49" d="M1005.85,898.96c.03-9.69,5.04-18.73,14.26-24.8,9.24-6.08,18.84-7.18,28.37-3.98,1.37.46,1.36.56.35,1.87-11.51,14.77-23.13,29.67-34.84,44.74-.67.86-1.09.96-1.77.23-3.51-3.78-6.09-10.23-6.37-18.06Z"/>
          <path id="color_2" class="cls-7" d="M1056.46,914.97c-1.55,1.79-3.02,3.59-4.58,5.28-4.05,4.39-8.45,8.3-13.19,11.79-.91.67-1.68.84-2.66.46-6.67-2.59-13.06-5.96-18.81-10.76-1.07-.9-1.06-.89-.1-2.12,6.06-7.76,12.1-15.47,18.07-23.18.67-.87,1.04-.97,1.79-.25,6.34,6.14,12.61,12.11,18.73,17.99.22.21.42.44.75.79Z"/>
          <path id="color_1" class="cls-56" d="M1064.7,893.19c0,6.08-1.54,11.49-4.56,16.51-.77,1.28-.89,1.28-1.79.41-6.04-5.85-12.19-11.83-18.49-17.89-.62-.59-.66-1-.07-1.75,4.39-5.52,8.75-11.05,13.07-16.57.61-.78,1.04-.97,1.84-.36,5.24,3.99,8.59,9.43,9.71,16.63.17,1.06.2,2.16.28,3.02Z"/>
        </g>
        <text id="peachless._logo" class="cls-2" transform="translate(982.11 982.65) rotate(-17.85) scale(1.38 .98) skewX(-8.75)"><tspan class="cls-17" x="0" y="0">p</tspan><tspan class="cls-33" x="14.32" y="0">e</tspan><tspan class="cls-38" x="25.93" y="0">a</tspan><tspan x="38.01" y="0">ch</tspan><tspan class="cls-44" x="63.59" y="0">l</tspan><tspan class="cls-50" x="70.86" y="0">e</tspan><tspan x="82.52" y="0">s</tspan><tspan class="cls-16" x="92.57" y="0">s</tspan><tspan x="102.8" y="0">.</tspan></text>
      </g>
      <g id="do_not_full_logo-2" data-name="do_not_full_logo">
        <path id="outline-2" data-name="outline" class="cls-46" d="M1286.22,877.16c7.45.48,14.51,2.08,20.89,5.96,7.64,4.65,13.04,11.12,15.05,19.97,2.25,9.94-.23,18.9-6.74,26.58-8.02,9.46-17.94,16.48-29.3,21.45-.35.15-.87.19-1.2.04-11.31-5.01-21.35-11.82-29.44-21.25-4.89-5.7-7.5-12.4-7.59-19.92-.1-8.58,3.22-15.82,9.27-21.83,5.67-5.63,12.6-8.82,20.41-10.19.19-.03.38-.09.48-.12-2.82-3-5.64-5.99-8.52-9.05.92-.83,1.95-1.76,3.03-2.75,2.85,2.67,5.63,5.28,8.54,8,.31-1.95.47-3.7.88-5.39,1.95-8.15,3.77-14,11.17-17.75,2.93-1.48,6.01-2.67,9.17-4.06-.36,14.11-3.74,24.04-16.11,30.29ZM1252.79,907.75c-.09,7.58,2.3,14.18,5.83,18.38.69.82,1.15.78,1.89.03,13.24-13.21,26.51-26.4,39.77-39.58,1.18-1.17,1.19-1.27-.34-1.86-10.49-4.05-20.96-3.92-31.07.96-9.96,4.81-15.59,12.84-16.09,22.08ZM1307.96,930.68c-.38-.42-.61-.69-.85-.93-6.93-6.93-13.87-13.84-20.76-20.8-.8-.81-1.21-.75-1.99.02-6.84,6.84-13.73,13.63-20.61,20.44-1.09,1.08-1.1,1.07.01,2.12,6.03,5.68,12.92,10.12,20.28,13.87,1.09.56,1.96.51,3.01-.02,5.5-2.79,10.67-6.09,15.46-9.96,1.85-1.5,3.6-3.12,5.45-4.73ZM1318.05,909.54c-.07-.88-.1-2.01-.27-3.11-1.18-7.41-4.95-13.24-10.87-17.78-.9-.69-1.38-.55-2.1.16-5.03,4.96-10.08,9.91-15.15,14.83-.69.67-.65,1.07.02,1.74,6.88,6.84,13.74,13.71,20.6,20.58,1.03,1.03,1.17,1.04,2.1-.16,3.65-4.72,5.56-10.06,5.68-16.26Z"/>
        <path id="color_3-2" data-name="color_3" class="cls-49" d="M1252.79,907.75c.5-9.24,6.13-17.27,16.09-22.08,10.11-4.88,20.58-5.01,31.07-.96,1.53.59,1.52.69.34,1.86-13.26,13.19-26.53,26.37-39.77,39.58-.75.75-1.2.79-1.89-.03-3.53-4.2-5.92-10.8-5.83-18.38Z"/>
        <path id="color_2-2" data-name="color_2" class="cls-7" d="M1307.96,930.68c-1.85,1.61-3.6,3.23-5.45,4.73-4.79,3.88-9.96,7.17-15.46,9.96-1.05.53-1.92.58-3.01.02-7.36-3.75-14.25-8.18-20.28-13.87-1.11-1.05-1.1-1.04-.01-2.12,6.88-6.8,13.76-13.6,20.61-20.44.77-.77,1.19-.83,1.99-.02,6.9,6.96,13.84,13.87,20.76,20.8.25.25.48.52.85.93Z"/>
        <path id="color_1-2" data-name="color_1" class="cls-56" d="M1318.05,909.54c-.12,6.2-2.03,11.54-5.68,16.26-.93,1.2-1.07,1.18-2.1.16-6.86-6.86-13.71-13.74-20.6-20.58-.67-.66-.71-1.07-.02-1.74,5.07-4.92,10.12-9.87,15.15-14.83.71-.7,1.2-.84,2.1-.16,5.92,4.54,9.69,10.36,10.87,17.78.18,1.1.2,2.22.27,3.11Z"/>
        <text id="peachless._logo-2" data-name="peachless._logo" class="cls-4" transform="translate(1347.23 918.95)"><tspan class="cls-19" x="0" y="0">p</tspan><tspan class="cls-41" x="17.85" y="0">e</tspan><tspan class="cls-35" x="32.32" y="0">a</tspan><tspan x="47.38" y="0">ch</tspan><tspan class="cls-20" x="79.28" y="0">l</tspan><tspan class="cls-63" x="88.33" y="0">e</tspan><tspan x="102.87" y="0">s</tspan><tspan class="cls-59" x="115.4" y="0">s</tspan><tspan x="128.15" y="0">.</tspan></text>
      </g>
      <g id="do_not_full_logo-3" data-name="do_not_full_logo">
        <path id="outline-3" data-name="outline" class="cls-25" d="M1652.22,851.16c7.45.48,14.51,2.08,20.89,5.96,7.64,4.65,13.04,11.12,15.05,19.97,2.25,9.94-.23,18.9-6.74,26.58-8.02,9.46-17.94,16.48-29.3,21.45-.35.15-.87.19-1.2.04-11.31-5.01-21.35-11.82-29.44-21.25-4.89-5.7-7.5-12.4-7.59-19.92-.1-8.58,3.22-15.82,9.27-21.83,5.67-5.63,12.6-8.82,20.41-10.19.19-.03.38-.09.48-.12-2.82-3-5.64-5.99-8.52-9.05.92-.83,1.95-1.76,3.03-2.75,2.85,2.67,5.63,5.28,8.54,8,.31-1.95.47-3.7.88-5.39,1.95-8.15,3.77-14,11.17-17.75,2.93-1.48,6.01-2.67,9.17-4.06-.36,14.11-3.74,24.04-16.11,30.29ZM1618.79,881.75c-.09,7.58,2.3,14.18,5.83,18.38.69.82,1.15.78,1.89.03,13.24-13.21,26.51-26.4,39.77-39.58,1.18-1.17,1.19-1.27-.34-1.86-10.49-4.05-20.96-3.92-31.07.96-9.96,4.81-15.59,12.84-16.09,22.08ZM1673.96,904.68c-.38-.42-.61-.69-.85-.93-6.93-6.93-13.87-13.84-20.76-20.8-.8-.81-1.21-.75-1.99.02-6.84,6.84-13.73,13.63-20.61,20.44-1.09,1.08-1.1,1.07.01,2.12,6.03,5.68,12.92,10.12,20.28,13.87,1.09.56,1.96.51,3.01-.02,5.5-2.79,10.67-6.09,15.46-9.96,1.85-1.5,3.6-3.12,5.45-4.73ZM1684.05,883.54c-.07-.88-.1-2.01-.27-3.11-1.18-7.41-4.95-13.24-10.87-17.78-.9-.69-1.38-.55-2.1.16-5.03,4.96-10.08,9.91-15.15,14.83-.69.67-.65,1.07.02,1.74,6.88,6.84,13.74,13.71,20.6,20.58,1.03,1.03,1.17,1.04,2.1-.16,3.65-4.72,5.56-10.06,5.68-16.26Z"/>
        <path id="color_3-3" data-name="color_3" class="cls-37" d="M1618.79,881.75c.5-9.24,6.13-17.27,16.09-22.08,10.11-4.88,20.58-5.01,31.07-.96,1.53.59,1.52.69.34,1.86-13.26,13.19-26.53,26.37-39.77,39.58-.75.75-1.2.79-1.89-.03-3.53-4.2-5.92-10.8-5.83-18.38Z"/>
        <path id="color_2-3" data-name="color_2" class="cls-24" d="M1673.96,904.68c-1.85,1.61-3.6,3.23-5.45,4.73-4.79,3.88-9.96,7.17-15.46,9.96-1.05.53-1.92.58-3.01.02-7.36-3.75-14.25-8.18-20.28-13.87-1.11-1.05-1.1-1.04-.01-2.12,6.88-6.8,13.76-13.6,20.61-20.44.77-.77,1.19-.83,1.99-.02,6.9,6.96,13.84,13.87,20.76,20.8.25.25.48.52.85.93Z"/>
        <path id="color_1-3" data-name="color_1" class="cls-26" d="M1684.05,883.54c-.12,6.2-2.03,11.54-5.68,16.26-.93,1.2-1.07,1.18-2.1.16-6.86-6.86-13.71-13.74-20.6-20.58-.67-.66-.71-1.07-.02-1.74,5.07-4.92,10.12-9.87,15.15-14.83.71-.7,1.2-.84,2.1-.16,5.92,4.54,9.69,10.36,10.87,17.78.18,1.1.2,2.22.27,3.11Z"/>
        <text id="peachless._logo-3" data-name="peachless._logo" class="cls-3" transform="translate(1582.23 955.95)"><tspan class="cls-19" x="0" y="0">p</tspan><tspan class="cls-41" x="17.85" y="0">e</tspan><tspan class="cls-35" x="32.32" y="0">a</tspan><tspan x="47.38" y="0">ch</tspan><tspan class="cls-20" x="79.28" y="0">l</tspan><tspan class="cls-63" x="88.33" y="0">e</tspan><tspan x="102.87" y="0">s</tspan><tspan class="cls-59" x="115.4" y="0">s</tspan><tspan x="128.15" y="0">.</tspan></text>
      </g>
    </g>
    <g id="variations">
      <g id="variation">
        <path id="outline-4" data-name="outline" class="cls-7" d="M1326.49,580.15c8.14.55,15.85,2.38,22.82,6.82,8.35,5.32,14.25,12.72,16.44,22.85,2.46,11.37-.25,21.63-7.36,30.41-8.76,10.83-19.6,18.86-32.01,24.54-.38.17-.95.22-1.31.05-12.36-5.73-23.32-13.52-32.17-24.32-5.34-6.52-8.19-14.19-8.29-22.79-.11-9.82,3.52-18.1,10.13-24.97,6.2-6.45,13.76-10.09,22.3-11.66.21-.04.41-.1.53-.13-3.08-3.43-6.16-6.86-9.3-10.36,1-.95,2.13-2.02,3.31-3.14,3.11,3.06,6.16,6.04,9.33,9.16.34-2.24.52-4.23.96-6.17,2.13-9.33,7.5-16.01,15.58-20.31,3.2-1.7,6.56-3.05,10.02-4.64-.4,16.15-7.47,27.51-20.98,34.66ZM1289.96,615.14c-.1,8.67,2.51,16.23,6.37,21.03.76.94,1.25.89,2.07.03,14.47-15.12,28.96-30.2,43.45-45.29,1.29-1.34,1.3-1.46-.37-2.13-11.46-4.64-22.9-4.49-33.95,1.1-10.88,5.5-17.03,14.69-17.58,25.26ZM1350.24,641.38c-.41-.48-.66-.78-.93-1.07-7.57-7.93-15.15-15.83-22.69-23.79-.87-.92-1.32-.86-2.17.02-7.48,7.82-15,15.6-22.51,23.38-1.19,1.23-1.2,1.22.02,2.42,6.59,6.5,14.11,11.57,22.15,15.87,1.19.64,2.15.58,3.29-.03,6.01-3.19,11.65-6.96,16.89-11.4,2.02-1.71,3.93-3.57,5.95-5.41ZM1361.27,617.2c-.08-1.01-.1-2.3-.3-3.56-1.29-8.48-5.41-15.15-11.88-20.34-.98-.79-1.51-.63-2.29.18-5.5,5.68-11.01,11.34-16.55,16.97-.75.76-.71,1.23.02,1.99,7.52,7.83,15.01,15.69,22.5,23.54,1.12,1.18,1.28,1.19,2.29-.18,3.99-5.4,6.08-11.51,6.2-18.61Z"/>
        <text id="peachless._logo-4" data-name="peachless._logo" class="cls-1" transform="translate(1250.02 700.04) scale(.95 1)"><tspan class="cls-67" x="0" y="0">p</tspan><tspan class="cls-23" x="20.42" y="0">e</tspan><tspan class="cls-61" x="36.98" y="0">a</tspan><tspan x="54.21" y="0">ch</tspan><tspan class="cls-60" x="90.7" y="0">l</tspan><tspan class="cls-62" x="101.06" y="0">e</tspan><tspan x="117.69" y="0">s</tspan><tspan class="cls-64" x="132.02" y="0">s</tspan><tspan x="146.61" y="0">.</tspan></text>
      </g>
      <g id="variation-2" data-name="variation">
        <path id="outline-5" data-name="outline" class="cls-49" d="M1127.49,580.15c8.14.55,15.85,2.38,22.82,6.82,8.35,5.32,14.25,12.72,16.44,22.85,2.46,11.37-.25,21.63-7.36,30.41-8.76,10.83-19.6,18.86-32.01,24.54-.38.17-.95.22-1.31.05-12.36-5.73-23.32-13.52-32.17-24.32-5.34-6.52-8.19-14.19-8.29-22.79-.11-9.82,3.52-18.1,10.13-24.97,6.2-6.45,13.76-10.09,22.3-11.66.21-.04.41-.1.53-.13-3.08-3.43-6.16-6.86-9.3-10.36,1-.95,2.13-2.02,3.31-3.14,3.11,3.06,6.16,6.04,9.33,9.16.34-2.24.52-4.23.96-6.17,2.13-9.33,7.5-16.01,15.58-20.31,3.2-1.7,6.56-3.05,10.02-4.64-.4,16.15-7.47,27.51-20.98,34.66ZM1090.96,615.14c-.1,8.67,2.51,16.23,6.37,21.03.76.94,1.25.89,2.07.03,14.47-15.12,28.96-30.2,43.45-45.29,1.29-1.34,1.3-1.46-.37-2.13-11.46-4.64-22.9-4.49-33.95,1.1-10.88,5.5-17.03,14.69-17.58,25.26ZM1151.24,641.38c-.41-.48-.66-.78-.93-1.07-7.57-7.93-15.15-15.83-22.69-23.79-.87-.92-1.32-.86-2.17.02-7.48,7.82-15,15.6-22.51,23.38-1.19,1.23-1.2,1.22.02,2.42,6.59,6.5,14.11,11.57,22.15,15.87,1.19.64,2.15.58,3.29-.03,6.01-3.19,11.65-6.96,16.89-11.4,2.02-1.71,3.93-3.57,5.95-5.41ZM1162.27,617.2c-.08-1.01-.1-2.3-.3-3.56-1.29-8.48-5.41-15.15-11.88-20.34-.98-.79-1.51-.63-2.29.18-5.5,5.68-11.01,11.34-16.55,16.97-.75.76-.71,1.23.02,1.99,7.52,7.83,15.01,15.69,22.5,23.54,1.12,1.18,1.28,1.19,2.29-.18,3.99-5.4,6.08-11.51,6.2-18.61Z"/>
        <text id="peachless._logo-5" data-name="peachless._logo" class="cls-5" transform="translate(1051.02 700.04) scale(.95 1)"><tspan class="cls-67" x="0" y="0">p</tspan><tspan class="cls-23" x="20.42" y="0">e</tspan><tspan class="cls-61" x="36.98" y="0">a</tspan><tspan x="54.21" y="0">ch</tspan><tspan class="cls-60" x="90.7" y="0">l</tspan><tspan class="cls-62" x="101.06" y="0">e</tspan><tspan x="117.69" y="0">s</tspan><tspan class="cls-64" x="132.02" y="0">s</tspan><tspan x="146.61" y="0">.</tspan></text>
      </g>
      <g id="variation-3" data-name="variation">
        <path id="outline-6" data-name="outline" class="cls-46" d="M1520.49,579.15c8.14.55,15.85,2.38,22.82,6.82,8.35,5.32,14.25,12.72,16.44,22.85,2.46,11.37-.25,21.63-7.36,30.41-8.76,10.83-19.6,18.86-32.01,24.54-.38.17-.95.22-1.31.05-12.36-5.73-23.32-13.52-32.17-24.32-5.34-6.52-8.19-14.19-8.29-22.79-.11-9.82,3.52-18.1,10.13-24.97,6.2-6.45,13.76-10.09,22.3-11.66.21-.04.41-.1.53-.13-3.08-3.43-6.16-6.86-9.3-10.36,1-.95,2.13-2.02,3.31-3.14,3.11,3.06,6.16,6.04,9.33,9.16.34-2.24.52-4.23.96-6.17,2.13-9.33,7.5-16.01,15.58-20.31,3.2-1.7,6.56-3.05,10.02-4.64-.4,16.15-7.47,27.51-20.98,34.66ZM1483.96,614.14c-.1,8.67,2.51,16.23,6.37,21.03.76.94,1.25.89,2.07.03,14.47-15.12,28.96-30.2,43.45-45.29,1.29-1.34,1.3-1.46-.37-2.13-11.46-4.64-22.9-4.49-33.95,1.1-10.88,5.5-17.03,14.69-17.58,25.26ZM1544.24,640.38c-.41-.48-.66-.78-.93-1.07-7.57-7.93-15.15-15.83-22.69-23.79-.87-.92-1.32-.86-2.17.02-7.48,7.82-15,15.6-22.51,23.38-1.19,1.23-1.2,1.22.02,2.42,6.59,6.5,14.11,11.57,22.15,15.87,1.19.64,2.15.58,3.29-.03,6.01-3.19,11.65-6.96,16.89-11.4,2.02-1.71,3.93-3.57,5.95-5.41ZM1555.27,616.2c-.08-1.01-.1-2.3-.3-3.56-1.29-8.48-5.41-15.15-11.88-20.34-.98-.79-1.51-.63-2.29.18-5.5,5.68-11.01,11.34-16.55,16.97-.75.76-.71,1.23.02,1.99,7.52,7.83,15.01,15.69,22.5,23.54,1.12,1.18,1.28,1.19,2.29-.18,3.99-5.4,6.08-11.51,6.2-18.61Z"/>
        <text id="peachless._logo-6" data-name="peachless._logo" class="cls-6" transform="translate(1444.02 699.04) scale(.95 1)"><tspan class="cls-67" x="0" y="0">p</tspan><tspan class="cls-23" x="20.42" y="0">e</tspan><tspan class="cls-61" x="36.98" y="0">a</tspan><tspan x="54.21" y="0">ch</tspan><tspan class="cls-60" x="90.7" y="0">l</tspan><tspan class="cls-62" x="101.06" y="0">e</tspan><tspan x="117.69" y="0">s</tspan><tspan class="cls-64" x="132.02" y="0">s</tspan><tspan x="146.61" y="0">.</tspan></text>
      </g>
    </g>
    <g id="guide_symbol">
      <g id="symbol_logo">
        <path id="outline-7" data-name="outline" class="cls-46" d="M1467.18,319.13c7.26.46,14.13,2.03,20.34,5.8,7.44,4.53,12.7,10.83,14.65,19.45,2.19,9.68-.22,18.4-6.56,25.88-7.81,9.22-17.47,16.05-28.53,20.88-.34.15-.85.19-1.17.04-11.01-4.88-20.78-11.51-28.67-20.69-4.76-5.55-7.3-12.07-7.39-19.4-.1-8.35,3.14-15.41,9.03-21.25,5.53-5.49,12.27-8.58,19.88-9.92.19-.03.37-.09.47-.11-2.74-2.92-5.49-5.84-8.29-8.82.9-.81,1.9-1.72,2.95-2.67,2.78,2.6,5.49,5.14,8.32,7.79.3-1.9.46-3.6.85-5.25,1.9-7.94,6.68-13.63,13.89-17.28,2.85-1.45,5.85-2.6,8.93-3.95-.35,13.74-6.66,23.41-18.7,29.5ZM1434.63,348.91c-.09,7.38,2.24,13.81,5.68,17.9.67.8,1.12.76,1.84.03,12.89-12.86,25.81-25.7,38.73-38.54,1.15-1.14,1.16-1.24-.33-1.81-10.21-3.95-20.41-3.82-30.25.94-9.7,4.68-15.18,12.5-15.67,21.5ZM1488.35,371.23c-.37-.4-.59-.67-.83-.91-6.74-6.74-13.5-13.47-20.22-20.25-.78-.79-1.18-.73-1.93.02-6.66,6.66-13.37,13.27-20.07,19.9-1.06,1.05-1.07,1.04.01,2.06,5.87,5.54,12.58,9.85,19.75,13.5,1.06.54,1.91.49,2.93-.02,5.35-2.72,10.39-5.93,15.05-9.7,1.8-1.46,3.51-3.03,5.31-4.6ZM1498.18,350.66c-.07-.86-.09-1.96-.26-3.03-1.15-7.22-4.82-12.89-10.59-17.31-.87-.67-1.35-.53-2.04.15-4.9,4.83-9.81,9.65-14.75,14.44-.67.65-.63,1.05.02,1.69,6.7,6.66,13.38,13.35,20.06,20.04,1,1,1.14,1.02,2.04-.15,3.55-4.59,5.42-9.79,5.53-15.84Z"/>
        <path id="color_3-4" data-name="color_3" class="cls-49" d="M1434.63,348.91c.49-9,5.97-16.81,15.67-21.5,9.84-4.75,20.04-4.88,30.25-.94,1.49.57,1.48.67.33,1.81-12.92,12.84-25.83,25.68-38.73,38.54-.73.73-1.17.77-1.84-.03-3.44-4.09-5.77-10.52-5.68-17.9Z"/>
        <path id="color_2-4" data-name="color_2" class="cls-7" d="M1488.35,371.23c-1.8,1.57-3.5,3.14-5.31,4.6-4.66,3.78-9.7,6.98-15.05,9.7-1.02.52-1.87.57-2.93.02-7.17-3.65-13.87-7.97-19.75-13.5-1.08-1.02-1.07-1.01-.01-2.06,6.7-6.62,13.4-13.24,20.07-19.9.75-.75,1.16-.81,1.93-.02,6.71,6.77,13.47,13.5,20.22,20.25.24.24.46.5.83.91Z"/>
        <path id="color_1-4" data-name="color_1" class="cls-56" d="M1498.18,350.66c-.11,6.04-1.98,11.24-5.53,15.84-.9,1.17-1.04,1.15-2.04.15-6.68-6.68-13.35-13.37-20.06-20.04-.65-.65-.69-1.04-.02-1.69,4.94-4.79,9.85-9.61,14.75-14.44.69-.69,1.17-.82,2.04-.15,5.77,4.42,9.44,10.09,10.59,17.31.17,1.07.19,2.17.26,3.03Z"/>
      </g>
      <rect class="cls-49" x="1158" y="246" width="22" height="16"/>
      <rect class="cls-49" x="1158" y="405" width="22" height="16"/>
      <rect class="cls-49" x="1314" y="405" width="22" height="16"/>
      <rect class="cls-49" x="1314" y="246" width="22" height="16"/>
      <path class="cls-10" d="M1158,246l178,.52v175.48l-178-.52v-175.48Z"/>
      <path class="cls-9" d="M1180,246v176M1314,422v-176"/>
      <path class="cls-12" d="M1336,262h-178s0,143,0,143l178-.03"/>
    </g>
    <g id="guide_full_logo">
      <g id="full_logo">
        <path id="outline-8" data-name="outline" class="cls-46" d="M1249.75,292.59c7.45.48,14.51,2.08,20.89,5.96,7.64,4.65,13.04,11.12,15.05,19.97,2.25,9.94-.23,18.9-6.74,26.58-8.02,9.46-17.94,16.48-29.3,21.45-.35.15-.87.19-1.2.04-11.31-5.01-21.35-11.82-29.44-21.25-4.89-5.7-7.5-12.4-7.59-19.92-.1-8.58,3.22-15.82,9.27-21.83,5.67-5.63,12.6-8.82,20.41-10.19.19-.03.38-.09.48-.12-2.82-3-5.64-5.99-8.52-9.05.92-.83,1.95-1.76,3.03-2.75,2.85,2.67,5.63,5.28,8.54,8,.31-1.95.47-3.7.88-5.39,1.95-8.15,3.77-14,11.17-17.75,2.93-1.48,6.01-2.67,9.17-4.06-.36,14.11-3.74,24.04-16.11,30.29ZM1216.32,323.17c-.09,7.58,2.3,14.18,5.83,18.38.69.82,1.15.78,1.89.03,13.24-13.21,26.51-26.4,39.77-39.58,1.18-1.17,1.19-1.27-.34-1.86-10.49-4.05-20.96-3.92-31.07.96-9.96,4.81-15.59,12.84-16.09,22.08ZM1271.49,346.1c-.38-.42-.61-.69-.85-.93-6.93-6.93-13.87-13.84-20.76-20.8-.8-.81-1.21-.75-1.99.02-6.84,6.84-13.73,13.63-20.61,20.44-1.09,1.08-1.1,1.07.01,2.12,6.03,5.68,12.92,10.12,20.28,13.87,1.09.56,1.96.51,3.01-.02,5.5-2.79,10.67-6.09,15.46-9.96,1.85-1.5,3.6-3.12,5.45-4.73ZM1281.58,324.97c-.07-.88-.1-2.01-.27-3.11-1.18-7.41-4.95-13.24-10.87-17.78-.9-.69-1.38-.55-2.1.16-5.03,4.96-10.08,9.91-15.15,14.83-.69.67-.65,1.07.02,1.74,6.88,6.84,13.74,13.71,20.6,20.58,1.03,1.03,1.17,1.04,2.1-.16,3.65-4.72,5.56-10.06,5.68-16.26Z"/>
        <path id="color_3-5" data-name="color_3" class="cls-49" d="M1216.32,323.17c.5-9.24,6.13-17.27,16.09-22.08,10.11-4.88,20.58-5.01,31.07-.96,1.53.59,1.52.69.34,1.86-13.26,13.19-26.53,26.37-39.77,39.58-.75.75-1.2.79-1.89-.03-3.53-4.2-5.92-10.8-5.83-18.38Z"/>
        <path id="color_2-5" data-name="color_2" class="cls-7" d="M1271.49,346.1c-1.85,1.61-3.6,3.23-5.45,4.73-4.79,3.88-9.96,7.17-15.46,9.96-1.05.53-1.92.58-3.01.02-7.36-3.75-14.25-8.18-20.28-13.87-1.11-1.05-1.1-1.04-.01-2.12,6.88-6.8,13.76-13.6,20.61-20.44.77-.77,1.19-.83,1.99-.02,6.9,6.96,13.84,13.87,20.76,20.8.25.25.48.52.85.93Z"/>
        <path id="color_1-5" data-name="color_1" class="cls-56" d="M1281.58,324.97c-.12,6.2-2.03,11.54-5.68,16.26-.93,1.2-1.07,1.18-2.1.16-6.86-6.86-13.71-13.74-20.6-20.58-.67-.66-.71-1.07-.02-1.74,5.07-4.92,10.12-9.87,15.15-14.83.71-.7,1.2-.84,2.1-.16,5.92,4.54,9.69,10.36,10.87,17.78.18,1.1.2,2.22.27,3.11Z"/>
        <text id="peachless._logo-7" data-name="peachless._logo" class="cls-4" transform="translate(1179.76 397.37)"><tspan class="cls-19" x="0" y="0">p</tspan><tspan class="cls-41" x="17.85" y="0">e</tspan><tspan class="cls-35" x="32.32" y="0">a</tspan><tspan x="47.38" y="0">ch</tspan><tspan class="cls-20" x="79.28" y="0">l</tspan><tspan class="cls-63" x="88.33" y="0">e</tspan><tspan x="102.87" y="0">s</tspan><tspan class="cls-59" x="115.4" y="0">s</tspan><tspan x="128.15" y="0">.</tspan></text>
      </g>
      <rect class="cls-49" x="1417" y="278" width="12" height="11"/>
      <rect class="cls-49" x="1417" y="391" width="12" height="11"/>
      <rect class="cls-49" x="1504" y="391" width="12" height="11"/>
      <rect class="cls-49" x="1504" y="278" width="12" height="11"/>
      <path class="cls-8" d="M1417,278l99,.37v124.63l-99-.37v-124.63Z"/>
      <path class="cls-11" d="M1429,278v125M1504,403v-125"/>
      <path class="cls-13" d="M1515,290h-98s0,101,0,101l98-.02"/>
    </g>
    <g id="text">
      <text class="cls-30" transform="translate(1845.39 1030.16)"><tspan x="0" y="0">7</tspan></text>
      <text class="cls-31" transform="translate(114 302.57)"><tspan class="cls-58" x="0" y="0">K</tspan><tspan x="19.77" y="0">eep a minimum clear s</tspan><tspan class="cls-52" x="330.03" y="0">p</tspan><tspan class="cls-28" x="348.69" y="0">a</tspan><tspan x="365.83" y="0">ce a</tspan><tspan class="cls-36" x="424.89" y="0">r</tspan><tspan x="435.45" y="0">ound the logo </tspan><tspan x="0" y="38.4">equal </tspan><tspan class="cls-54" x="83.59" y="38.4">t</tspan><tspan x="93.08" y="38.4">o the heig</tspan><tspan class="cls-32" x="229.42" y="38.4">h</tspan><tspan x="246.64" y="38.4">t </tspan><tspan class="cls-66" x="262.7" y="38.4">o</tspan><tspan x="280.81" y="38.4">f the pe</tspan><tspan class="cls-28" x="384.94" y="38.4">a</tspan><tspan x="402.08" y="38.4">ch </tspan><tspan class="cls-57" x="443.41" y="38.4">s</tspan><tspan x="459.52" y="38.4">egme</tspan><tspan class="cls-32" x="540.83" y="38.4">n</tspan><tspan class="cls-57" x="558.05" y="38.4">t</tspan><tspan x="568.03" y="38.4">. No </tspan><tspan class="cls-66" x="0" y="76.8">o</tspan><tspan x="18.11" y="76.8">ther eleme</tspan><tspan class="cls-32" x="167.61" y="76.8">n</tspan><tspan class="cls-28" x="184.83" y="76.8">t</tspan><tspan x="194.5" y="76.8">s should e</tspan><tspan class="cls-32" x="335.03" y="76.8">n</tspan><tspan class="cls-54" x="352.25" y="76.8">t</tspan><tspan x="361.73" y="76.8">er this a</tspan><tspan class="cls-36" x="470.09" y="76.8">r</tspan><tspan x="480.66" y="76.8">e</tspan><tspan class="cls-18" x="498.58" y="76.8">a</tspan><tspan x="516.12" y="76.8">.</tspan></text>
      <text class="cls-29" transform="translate(112.07 247.5)"><tspan x="0" y="0">Clear S</tspan><tspan class="cls-42" x="308.42" y="0">p</tspan><tspan class="cls-14" x="364.2" y="0">a</tspan><tspan class="cls-53" x="415.45" y="0">ce</tspan></text>
      <text class="cls-31" transform="translate(114 885.61)"><tspan x="0" y="0">Do n</tspan><tspan class="cls-66" x="65.19" y="0">o</tspan><tspan x="83.3" y="0">t di</tspan><tspan class="cls-66" x="124.11" y="0">s</tspan><tspan class="cls-54" x="139.66" y="0">t</tspan><tspan x="149.14" y="0">o</tspan><tspan class="cls-18" x="167.7" y="0">r</tspan><tspan x="179.23" y="0">t or </tspan><tspan class="cls-36" x="231.38" y="0">r</tspan><tspan class="cls-66" x="241.94" y="0">o</tspan><tspan class="cls-52" x="260.05" y="0">t</tspan><tspan class="cls-22" x="269.81" y="0">a</tspan><tspan class="cls-54" x="286.61" y="0">t</tspan><tspan x="296.09" y="0">e the log</tspan><tspan class="cls-34" x="414.98" y="0">o</tspan><tspan x="432.95" y="0">.</tspan><tspan x="0" y="38.4">Do n</tspan><tspan class="cls-66" x="65.19" y="38.4">o</tspan><tspan x="83.3" y="38.4">t modi</tspan><tspan class="cls-48" x="169.5" y="38.4">f</tspan><tspan x="179.55" y="38.4">y the log</tspan><tspan class="cls-65" x="295.69" y="38.4">o</tspan><tspan class="cls-45" x="313.23" y="38.4">’</tspan><tspan x="316.61" y="38.4">s composition.</tspan><tspan x="0" y="76.8">Do n</tspan><tspan class="cls-66" x="65.19" y="76.8">o</tspan><tspan x="83.3" y="76.8">t al</tspan><tspan class="cls-54" x="122.77" y="76.8">t</tspan><tspan x="132.25" y="76.8">er the b</tspan><tspan class="cls-36" x="237.94" y="76.8">r</tspan><tspan x="248.5" y="76.8">and colo</tspan><tspan class="cls-28" x="369.12" y="76.8">r</tspan><tspan x="380.25" y="76.8">s.</tspan></text>
      <text class="cls-29" transform="translate(109.05 829.56)"><tspan x="0" y="0">Do N</tspan><tspan class="cls-55" x="212.37" y="0">o</tspan><tspan x="266.52" y="0">t</tspan></text>
      <text class="cls-31" transform="translate(114 578.02)"><tspan class="cls-28" x="0" y="0">T</tspan><tspan x="20.19" y="0">he logo m</tspan><tspan class="cls-34" x="156.67" y="0">a</tspan><tspan x="173.42" y="0">y be u</tspan><tspan class="cls-57" x="254.94" y="0">s</tspan><tspan x="271.05" y="0">ed in a</tspan><tspan class="cls-32" x="360.97" y="0">n</tspan><tspan x="378.19" y="0">y color f</tspan><tspan class="cls-36" x="487.59" y="0">r</tspan><tspan x="498.16" y="0">om the </tspan><tspan x="0" y="38.4">b</tspan><tspan class="cls-36" x="18.73" y="38.4">r</tspan><tspan x="29.3" y="38.4">and color </tspan><tspan class="cls-52" x="167.44" y="38.4">p</tspan><tspan x="186.09" y="38.4">al</tspan><tspan class="cls-66" x="209.5" y="38.4">e</tspan><tspan class="cls-47" x="226.97" y="38.4">t</tspan><tspan class="cls-54" x="236.23" y="38.4">t</tspan><tspan class="cls-28" x="245.72" y="38.4">e</tspan><tspan x="263.44" y="38.4">, applied consi</tspan><tspan class="cls-66" x="460.78" y="38.4">s</tspan><tspan class="cls-54" x="476.33" y="38.4">t</tspan><tspan x="485.81" y="38.4">e</tspan><tspan class="cls-32" x="503.73" y="38.4">n</tspan><tspan x="520.95" y="38.4">tly </tspan><tspan class="cls-54" x="558.25" y="38.4">t</tspan><tspan x="567.73" y="38.4">o b</tspan><tspan class="cls-66" x="611.22" y="38.4">o</tspan><tspan x="629.33" y="38.4">th </tspan><tspan x="0" y="76.8">the </tspan><tspan class="cls-54" x="51.52" y="76.8">s</tspan><tspan x="67.12" y="76.8">ymbol and the </tspan><tspan class="cls-54" x="270.02" y="76.8">t</tspan><tspan class="cls-51" x="279.5" y="76.8">e</tspan><tspan class="cls-43" x="296.61" y="76.8">x</tspan><tspan class="cls-57" x="312.98" y="76.8">t</tspan><tspan x="322.97" y="76.8">, </tspan><tspan class="cls-52" x="334.83" y="76.8">a</tspan><tspan x="352.06" y="76.8">s long </tspan><tspan class="cls-52" x="441.23" y="76.8">a</tspan><tspan x="458.47" y="76.8">s </tspan><tspan class="cls-36" x="480.66" y="76.8">r</tspan><tspan x="491.22" y="76.8">e</tspan><tspan class="cls-28" x="509.14" y="76.8">a</tspan><tspan x="526.28" y="76.8">dability </tspan><tspan x="0" y="115.2">and visual consi</tspan><tspan class="cls-66" x="219.11" y="115.2">s</tspan><tspan class="cls-54" x="234.66" y="115.2">t</tspan><tspan x="244.14" y="115.2">ency a</tspan><tspan class="cls-36" x="335.91" y="115.2">r</tspan><tspan x="346.47" y="115.2">e mai</tspan><tspan class="cls-32" x="420.73" y="115.2">n</tspan><tspan class="cls-52" x="437.95" y="115.2">t</tspan><tspan x="447.72" y="115.2">ained.</tspan></text>
      <text class="cls-29" transform="translate(113.05 517.56)"><tspan class="cls-15" x="0" y="0">P</tspan><tspan x="57.04" y="0">ossible </tspan><tspan class="cls-27" x="372.33" y="0">V</tspan><tspan class="cls-21" x="427.32" y="0">ari</tspan><tspan class="cls-39" x="530.94" y="0">a</tspan><tspan x="581.16" y="0">tions</tspan></text>
    </g>
  </g>
</svg>